<svg version="1.1" id="Layer_1" xmlns="http://www.w3.org/2000/svg" xmlns:xlink="http://www.w3.org/1999/xlink" x="0px" y="0px"
	 width="1254" height="1254" viewBox="0 0 1254 1254" enable-background="new 0 0 1254 1254" xml:space="preserve">
<path fill="#010100" opacity="1.000000" stroke="none" 
	d="
M607.000000,1255.000000 
	C404.666656,1255.000000 202.833328,1255.000000 1.000000,1255.000000 
	C1.000000,837.000000 1.000000,419.000000 1.000000,1.000000 
	C419.000000,1.000000 837.000000,1.000000 1255.000000,1.000000 
	C1255.000000,419.000000 1255.000000,837.000000 1255.000000,1255.000000 
	C1039.166626,1255.000000 823.333313,1255.000000 607.000000,1255.000000 
M419.500000,357.404938 
	C411.061707,357.404938 402.623444,357.404938 394.156158,357.404938 
	C394.079163,358.769867 394.009613,359.429230 394.009338,360.088593 
	C393.987488,417.744598 393.883606,475.400848 394.057251,533.056274 
	C394.080719,540.838806 394.964355,548.715149 396.363007,556.381348 
	C404.579681,601.417603 427.907013,636.773438 465.765137,662.353027 
	C478.410400,670.897095 491.733307,678.438232 504.949677,686.562744 
	C503.064362,687.764343 501.170197,689.023682 499.226990,690.202148 
	C465.619263,710.583374 432.031342,730.997681 398.351685,751.259460 
	C395.132446,753.196045 393.865753,755.219666 393.879181,759.097168 
	C394.032837,803.421814 393.961884,847.747131 393.965302,892.072327 
	C393.965424,893.828247 394.110107,895.584167 394.203094,897.695923 
	C397.115509,897.695923 399.592285,897.695374 402.069092,897.695984 
	C486.719818,897.716614 571.370667,897.808350 656.021118,897.686829 
	C669.829346,897.666992 683.703064,897.390015 697.431152,896.050110 
	C738.888550,892.003540 776.811279,878.214966 810.174377,852.913330 
	C854.151733,819.562195 872.694031,765.634827 858.124451,712.974060 
	C849.058411,680.205383 828.219238,655.883240 801.322754,636.215698 
	C795.332458,631.835388 788.999695,627.923584 783.644836,624.344299 
	C795.334167,615.487427 807.798950,607.540039 818.489929,597.671082 
	C855.348755,563.646423 870.842773,521.935425 858.861694,472.340485 
	C850.824097,439.069183 829.865662,414.291260 801.783081,395.598022 
	C762.988342,369.774170 719.792114,357.676514 673.450745,357.478302 
	C589.135254,357.117645 504.817047,357.394043 419.500000,357.404938 
z"/>
<path fill="#FDF9F6" opacity="1.000000" stroke="none" 
	d="
M420.000000,357.404785 
	C504.817047,357.394043 589.135254,357.117645 673.450745,357.478302 
	C719.792114,357.676514 762.988342,369.774170 801.783081,395.598022 
	C829.865662,414.291260 850.824097,439.069183 858.861694,472.340485 
	C870.842773,521.935425 855.348755,563.646423 818.489929,597.671082 
	C807.798950,607.540039 795.334167,615.487427 783.644836,624.344299 
	C788.999695,627.923584 795.332458,631.835388 801.322754,636.215698 
	C828.219238,655.883240 849.058411,680.205383 858.124451,712.974060 
	C872.694031,765.634827 854.151733,819.562195 810.174377,852.913330 
	C776.811279,878.214966 738.888550,892.003540 697.431152,896.050110 
	C683.703064,897.390015 669.829346,897.666992 656.021118,897.686829 
	C571.370667,897.808350 486.719818,897.716614 402.069092,897.695984 
	C399.592285,897.695374 397.115509,897.695923 394.203094,897.695923 
	C394.110107,895.584167 393.965424,893.828247 393.965302,892.072327 
	C393.961884,847.747131 394.032837,803.421814 393.879181,759.097168 
	C393.865753,755.219666 395.132446,753.196045 398.351685,751.259460 
	C432.031342,730.997681 465.619263,710.583374 499.226990,690.202148 
	C501.170197,689.023682 503.064362,687.764343 504.949677,686.562744 
	C491.733307,678.438232 478.410400,670.897095 465.765137,662.353027 
	C427.907013,636.773438 404.579681,601.417603 396.363007,556.381348 
	C394.964355,548.715149 394.080719,540.838806 394.057251,533.056274 
	C393.883606,475.400848 393.987488,417.744598 394.009338,360.088593 
	C394.009613,359.429230 394.079163,358.769867 394.156158,357.404938 
	C402.623444,357.404938 411.061707,357.404938 420.000000,357.404785 
M784.468262,481.184204 
	C777.226624,466.894562 765.291992,457.541107 751.583435,450.131073 
	C727.936401,437.348877 702.432983,431.523560 675.755737,431.416443 
	C607.098450,431.140717 538.439453,431.283691 469.781128,431.268677 
	C468.984436,431.268494 468.187775,431.392700 467.160980,431.477936 
	C467.049469,432.990417 466.873108,434.281036 466.871063,435.571899 
	C466.822083,466.735046 466.760162,497.898254 466.794525,529.061340 
	C466.799286,533.381592 467.029175,537.737488 467.608521,542.015442 
	C471.478607,570.592773 486.752869,591.716125 511.098480,606.256226 
	C545.520386,626.814087 580.258362,646.843079 614.862427,667.096069 
	C624.246338,672.588196 633.634644,678.072998 643.582764,683.889648 
	C636.498230,688.263123 630.179626,692.229248 623.798706,696.092407 
	C572.366882,727.229980 520.918823,758.340759 469.513306,789.521545 
	C468.391907,790.201782 466.968689,791.601807 466.948029,792.690063 
	C466.752747,802.967285 466.831818,813.249695 466.831818,824.004211 
	C469.743561,824.004211 472.203552,824.004517 474.663574,824.004089 
	C538.823364,823.992920 602.983887,824.138916 667.142273,823.832947 
	C679.413757,823.774475 691.821045,822.787598 703.913330,820.739258 
	C728.361450,816.597839 751.121277,808.066345 770.003845,791.186584 
	C792.668884,770.925659 796.078125,737.488647 778.111206,712.953857 
	C770.268005,702.243469 759.885010,694.535522 748.880920,687.522888 
	C725.293152,672.491211 701.629395,657.578491 678.080200,642.486816 
	C668.915710,636.613708 659.976196,630.389404 650.356934,623.937927 
	C674.982849,606.113281 697.888245,587.323486 723.899780,572.812256 
	C738.258057,564.802246 752.676025,556.509521 765.664734,546.520813 
	C788.046387,529.308533 794.335327,505.632050 784.468262,481.184204 
z"/>
<path fill="#020201" opacity="1.000000" stroke="none" 
	d="
M784.641479,481.521606 
	C794.335327,505.632050 788.046387,529.308533 765.664734,546.520813 
	C752.676025,556.509521 738.258057,564.802246 723.899780,572.812256 
	C697.888245,587.323486 674.982849,606.113281 650.356934,623.937927 
	C659.976196,630.389404 668.915710,636.613708 678.080200,642.486816 
	C701.629395,657.578491 725.293152,672.491211 748.880920,687.522888 
	C759.885010,694.535522 770.268005,702.243469 778.111206,712.953857 
	C796.078125,737.488647 792.668884,770.925659 770.003845,791.186584 
	C751.121277,808.066345 728.361450,816.597839 703.913330,820.739258 
	C691.821045,822.787598 679.413757,823.774475 667.142273,823.832947 
	C602.983887,824.138916 538.823364,823.992920 474.663574,824.004089 
	C472.203552,824.004517 469.743561,824.004211 466.831818,824.004211 
	C466.831818,813.249695 466.752747,802.967285 466.948029,792.690063 
	C466.968689,791.601807 468.391907,790.201782 469.513306,789.521545 
	C520.918823,758.340759 572.366882,727.229980 623.798706,696.092407 
	C630.179626,692.229248 636.498230,688.263123 643.582764,683.889648 
	C633.634644,678.072998 624.246338,672.588196 614.862427,667.096069 
	C580.258362,646.843079 545.520386,626.814087 511.098480,606.256226 
	C486.752869,591.716125 471.478607,570.592773 467.608521,542.015442 
	C467.029175,537.737488 466.799286,533.381592 466.794525,529.061340 
	C466.760162,497.898254 466.822083,466.735046 466.871063,435.571899 
	C466.873108,434.281036 467.049469,432.990417 467.160980,431.477936 
	C468.187775,431.392700 468.984436,431.268494 469.781128,431.268677 
	C538.439453,431.283691 607.098450,431.140717 675.755737,431.416443 
	C702.432983,431.523560 727.936401,437.348877 751.583435,450.131073 
	C765.291992,457.541107 777.226624,466.894562 784.641479,481.521606 
z"/>
</svg>
